<svg xml:space="preserve" viewBox="0 0 100 100" y="0" x="0" xmlns="http://www.w3.org/2000/svg" version="1.1" style="height: 100%; width: 100%;" width="40px" height="40px">
    <g class="ldl-scale" style="transform-origin: 50% 50%; transform: rotate(0deg) scale(0.8, 0.8);"><g class="ldl-ani"><g class="ldl-layer"><g class="ldl-ani" style="transform-origin: 50px 50px; animation: 1.72414s linear -1.07759s infinite normal forwards running static-c0f11033-00ba-4348-81cb-e9e6ee62ce48;"><path fill="#d1d1d1" d="M7.5 41.46c0-4.736 3.047-10.171 7.087-12.642l28.159-17.225c4.136-2.53 10.373-2.53 14.509 0l28.158 17.225c4.04 2.471 7.087 7.907 7.087 12.642v3.627c0 3.012-1.267 5.483-3.476 6.78-2.21 1.297-4.985 1.199-7.615-.27L53.497 36.014c-1.798-1.004-5.197-1.004-6.994 0L18.591 51.597c-2.63 1.468-5.405 1.566-7.614.27-2.21-1.297-3.477-3.768-3.477-6.78V41.46z" style="fill: rgb(47, 137, 252);"></path></g></g><g class="ldl-layer"><g class="ldl-ani" style="transform-origin: 50px 50px; animation: 1.72414s linear -1.2931s infinite normal forwards running static-c0f11033-00ba-4348-81cb-e9e6ee62ce48;"><path fill="#d1d1d1" d="M7.5 78.99c0-4.736 3.046-10.171 7.086-12.642l28.159-17.225c4.135-2.53 10.373-2.53 14.509 0l28.158 17.225c4.04 2.472 7.087 7.907 7.087 12.642v3.628c0 3.012-1.267 5.483-3.476 6.78-2.21 1.297-4.985 1.199-7.615-.27L53.497 73.545c-1.798-1.004-5.197-1.004-6.994 0L18.591 89.129c-2.63 1.468-5.405 1.566-7.614.27C8.767 88.101 7.5 85.63 7.5 82.618V78.99z" style="fill: rgb(47, 137, 252);"></path></g></g><g class="ldl-layer"><g class="ldl-ani" style="transform-origin: 50px 50px; animation: 1.72414s linear -1.50862s infinite normal forwards running static-c0f11033-00ba-4348-81cb-e9e6ee62ce48;"><path fill="#454545" d="M16.717 48.241c-2.955 1.649-5.372.231-5.372-3.153V41.46c0-3.384 2.362-7.597 5.248-9.362l28.159-17.225c2.886-1.766 7.61-1.766 10.496 0l28.159 17.225c2.886 1.766 5.248 5.979 5.248 9.362v3.627c0 3.384-2.417 4.802-5.372 3.153L55.371 32.657c-2.955-1.65-7.789-1.65-10.743 0L16.717 48.241z" style="fill: rgb(47, 137, 252);"></path></g></g><g class="ldl-layer"><g class="ldl-ani" style="transform-origin: 50px 50px; animation: 1.72414s linear -1.72414s infinite normal forwards running static-c0f11033-00ba-4348-81cb-e9e6ee62ce48;"><path fill="#454545" d="M16.717 85.771c-2.955 1.65-5.372.231-5.372-3.153V78.99c0-3.384 2.362-7.597 5.248-9.363l28.159-17.225c2.886-1.766 7.61-1.766 10.496 0l28.159 17.225c2.886 1.766 5.248 5.979 5.248 9.363v3.628c0 3.384-2.417 4.802-5.372 3.153L55.371 70.188c-2.955-1.65-7.789-1.65-10.743 0L16.717 85.771z" style="fill: rgb(47, 137, 252);"></path></g></g></g></g>
</svg>