<svg xmlns="http://www.w3.org/2000/svg"  viewBox="0 0 50 50" >
<!-- <path fill="#2f89fc" d="M 25 10 C 17.0625 10 9.644531 14.535156 6.109375 21.546875 C 5.871094 22.015625 6.035156 22.582031 6.476563 22.855469 C 6.925781 23.125 7.503906 23.007813 7.808594 22.589844 C 11.628906 17.339844 16.621094 15 24 15 C 34.636719 15 38.640625 23.222656 38.808594 23.574219 C 38.921875 23.816406 39.128906 24 39.386719 24.089844 C 39.492188 24.125 39.601563 24.144531 39.710938 24.144531 C 39.863281 24.144531 40.015625 24.109375 40.15625 24.035156 L 43.046875 22.59375 C 43.285156 22.472656 43.46875 22.261719 43.550781 22.003906 C 43.632813 21.746094 43.609375 21.46875 43.480469 21.230469 C 39.792969 14.304688 32.710938 10 25 10 Z M 25 17 C 19.640625 17 15.320313 19.511719 12.15625 24.464844 C 11.886719 24.886719 11.972656 25.441406 12.359375 25.765625 C 12.742188 26.089844 13.308594 26.078125 13.675781 25.738281 C 16.425781 23.222656 19.472656 22 23 22 C 27.472656 22 30.894531 23.617188 32.90625 26.675781 C 33.09375 26.96875 33.414063 27.128906 33.738281 27.128906 C 33.890625 27.128906 34.046875 27.097656 34.1875 27.027344 L 37.296875 25.46875 C 37.550781 25.339844 37.738281 25.113281 37.8125 24.84375 C 37.890625 24.570313 37.847656 24.28125 37.699219 24.042969 C 34.929688 19.632813 30.183594 17 25 17 Z M 1.945313 23 C 1.777344 23.011719 1.613281 23.0625 1.46875 23.15625 C 1.175781 23.335938 1 23.65625 1 24 L 1 27 C 1 27.386719 1.222656 27.738281 1.570313 27.902344 L 24.566406 38.902344 C 24.707031 38.96875 24.851563 39 25 39 C 25.148438 39 25.292969 38.96875 25.433594 38.902344 L 48.433594 27.902344 C 48.777344 27.738281 49 27.386719 49 27 L 49 24 C 49 23.65625 48.824219 23.335938 48.53125 23.15625 C 48.242188 22.972656 47.878906 22.949219 47.566406 23.097656 L 25 33.890625 L 2.429688 23.097656 C 2.277344 23.023438 2.109375 22.992188 1.945313 23 Z M 25 24 C 22.1875 24 19.566406 25.320313 18.164063 27.449219 C 17.902344 27.84375 17.957031 28.371094 18.292969 28.707031 C 18.628906 29.042969 19.152344 29.097656 19.550781 28.835938 C 20.367188 28.296875 21.59375 28 23 28 C 24.59375 28 26.09375 28.617188 27.226563 29.742188 C 27.417969 29.933594 27.671875 30.03125 27.933594 30.03125 C 28.082031 30.03125 28.238281 30 28.378906 29.929688 L 30.984375 28.625 C 31.253906 28.492188 31.449219 28.246094 31.515625 27.953125 C 31.578125 27.664063 31.515625 27.355469 31.328125 27.121094 C 29.800781 25.136719 27.492188 24 25 24 Z"/> -->
<path fill="#fff" d="M 25 10 C 17.0625 10 9.644531 14.535156 6.109375 21.546875 C 5.871094 22.015625 6.035156 22.582031 6.476563 22.855469 C 6.925781 23.125 7.503906 23.007813 7.808594 22.589844 C 11.628906 17.339844 16.621094 15 24 15 C 34.636719 15 38.640625 23.222656 38.808594 23.574219 C 38.921875 23.816406 39.128906 24 39.386719 24.089844 C 39.492188 24.125 39.601563 24.144531 39.710938 24.144531 C 39.863281 24.144531 40.015625 24.109375 40.15625 24.035156 L 43.046875 22.59375 C 43.285156 22.472656 43.46875 22.261719 43.550781 22.003906 C 43.632813 21.746094 43.609375 21.46875 43.480469 21.230469 C 39.792969 14.304688 32.710938 10 25 10 Z M 25 17 C 19.640625 17 15.320313 19.511719 12.15625 24.464844 C 11.886719 24.886719 11.972656 25.441406 12.359375 25.765625 C 12.742188 26.089844 13.308594 26.078125 13.675781 25.738281 C 16.425781 23.222656 19.472656 22 23 22 C 27.472656 22 30.894531 23.617188 32.90625 26.675781 C 33.09375 26.96875 33.414063 27.128906 33.738281 27.128906 C 33.890625 27.128906 34.046875 27.097656 34.1875 27.027344 L 37.296875 25.46875 C 37.550781 25.339844 37.738281 25.113281 37.8125 24.84375 C 37.890625 24.570313 37.847656 24.28125 37.699219 24.042969 C 34.929688 19.632813 30.183594 17 25 17 Z M 1.945313 23 C 1.777344 23.011719 1.613281 23.0625 1.46875 23.15625 C 1.175781 23.335938 1 23.65625 1 24 L 1 27 C 1 27.386719 1.222656 27.738281 1.570313 27.902344 L 24.566406 38.902344 C 24.707031 38.96875 24.851563 39 25 39 C 25.148438 39 25.292969 38.96875 25.433594 38.902344 L 48.433594 27.902344 C 48.777344 27.738281 49 27.386719 49 27 L 49 24 C 49 23.65625 48.824219 23.335938 48.53125 23.15625 C 48.242188 22.972656 47.878906 22.949219 47.566406 23.097656 L 25 33.890625 L 2.429688 23.097656 C 2.277344 23.023438 2.109375 22.992188 1.945313 23 Z M 25 24 C 22.1875 24 19.566406 25.320313 18.164063 27.449219 C 17.902344 27.84375 17.957031 28.371094 18.292969 28.707031 C 18.628906 29.042969 19.152344 29.097656 19.550781 28.835938 C 20.367188 28.296875 21.59375 28 23 28 C 24.59375 28 26.09375 28.617188 27.226563 29.742188 C 27.417969 29.933594 27.671875 30.03125 27.933594 30.03125 C 28.082031 30.03125 28.238281 30 28.378906 29.929688 L 30.984375 28.625 C 31.253906 28.492188 31.449219 28.246094 31.515625 27.953125 C 31.578125 27.664063 31.515625 27.355469 31.328125 27.121094 C 29.800781 25.136719 27.492188 24 25 24 Z"/>
</svg>