<?xml version="1.0" standalone="no"?>
<!DOCTYPE svg PUBLIC "-//W3C//DTD SVG 20010904//EN"
 "http://www.w3.org/TR/2001/REC-SVG-20010904/DTD/svg10.dtd">
<svg version="1.0" xmlns="http://www.w3.org/2000/svg"
 width="344.000000pt" height="344.000000pt" viewBox="0 0 344.000000 344.000000"
 preserveAspectRatio="xMidYMid meet">

<g transform="translate(0.000000,344.000000) scale(0.100000,-0.100000)"
fill="#ffffff15" stroke="none">
<path fill="#ffffff15" d="M1661 3203 c-15 -13 -70 -162 -190 -518 l-169 -500 -488 -6 c-269 -3
-508 -7 -532 -8 -34 -1 -50 -8 -73 -30 -38 -38 -39 -80 -1 -120 15 -16 207
-163 427 -326 220 -163 401 -300 403 -305 2 -5 -67 -235 -153 -510 -143 -459
-156 -504 -144 -531 15 -38 45 -59 85 -59 33 0 56 15 622 417 l272 194 0 1159
c0 1131 0 1160 -19 1160 -10 0 -28 -8 -40 -17z"/>
</g>
</svg>
